<svg xmlns="http://www.w3.org/2000/svg" width="20.995" height="23.364" viewBox="0 0 20.995 23.364">
  <g id="Group_133" data-name="Group 133" transform="translate(-372 -90)">
    <path id="Icon_ionic-md-notifications" data-name="Icon ionic-md-notifications" d="M15.51,26.739A2.338,2.338,0,0,0,17.835,24.4H13.184A2.338,2.338,0,0,0,15.51,26.739Zm7.559-7.009V13.3a7.572,7.572,0,0,0-5.815-7.36V5.127a1.744,1.744,0,1,0-3.489,0v.818A7.572,7.572,0,0,0,7.951,13.3V19.73L5.625,22.066v1.168H25.394V22.066Z" transform="translate(366.375 86.625)" fill="#fff"/>
    <circle id="Ellipse_25" data-name="Ellipse 25" cx="3.391" cy="3.391" r="3.391" transform="translate(386.212 106.581)" fill="#ec2424"/>
  </g>
</svg>
