<svg xmlns="http://www.w3.org/2000/svg" xmlns:xlink="http://www.w3.org/1999/xlink" width="64" height="64" viewBox="0 0 64 64">
  <defs>
    <filter id="Path_51" x="6.79" y="9.772" width="50.41" height="50.424" filterUnits="userSpaceOnUse">
      <feOffset dy="3" input="SourceAlpha"/>
      <feGaussianBlur stdDeviation="3" result="blur"/>
      <feFlood flood-opacity="0.161"/>
      <feComposite operator="in" in2="blur"/>
      <feComposite in="SourceGraphic"/>
    </filter>
    <filter id="Path_52" x="14.804" y="19.715" width="34.389" height="30.554" filterUnits="userSpaceOnUse">
      <feOffset dy="3" input="SourceAlpha"/>
      <feGaussianBlur stdDeviation="3" result="blur-2"/>
      <feFlood flood-opacity="0.161"/>
      <feComposite operator="in" in2="blur-2"/>
      <feComposite in="SourceGraphic"/>
    </filter>
  </defs>
  <g id="Group_137" data-name="Group 137" transform="translate(-67 -777)">
    <g id="btn-bg" transform="translate(67 777)" fill="#fff" stroke="#eceff1" stroke-width="1">
      <circle cx="32" cy="32" r="32" stroke="none"/>
      <circle cx="32" cy="32" r="31.5" fill="none"/>
    </g>
    <g id="Group_126" data-name="Group 126" transform="translate(-881.708 -263.696)">
      <g transform="matrix(1, 0, 0, 1, 948.71, 1040.7)" filter="url(#Path_51)">
        <path id="Path_51-2" data-name="Path 51" d="M99.926,9.01a15.7,15.7,0,1,0-14.2,22.412h.192a15.729,15.729,0,0,0,8.233-2.441,1.533,1.533,0,1,0-1.641-2.59,12.631,12.631,0,1,1,5.782-9.251,1.533,1.533,0,1,0,3.046.341A15.731,15.731,0,0,0,99.925,9.01Z" transform="translate(-53.74 16.27)" fill="#43be18" stroke="#43be18" stroke-width="1"/>
      </g>
      <g transform="matrix(1, 0, 0, 1, 948.71, 1040.7)" filter="url(#Path_52)">
        <path id="Path_52-2" data-name="Path 52" d="M225.707,177.5l-7.392,7.392-2.74-2.74a1.533,1.533,0,0,0-2.168,2.168l3.824,3.824a1.533,1.533,0,0,0,2.168,0l8.476-8.476a1.533,1.533,0,1,0-2.168-2.168Z" transform="translate(-188.64 -150.82)" fill="#43be18" stroke="#43be18" stroke-width="1"/>
      </g>
    </g>
  </g>
</svg>
