<svg xmlns="http://www.w3.org/2000/svg" xmlns:xlink="http://www.w3.org/1999/xlink" width="64" height="64" viewBox="0 0 64 64">
  <defs>
    <filter id="Icon_awesome-history" x="8.652" y="11.759" width="46.697" height="45.937" filterUnits="userSpaceOnUse">
      <feOffset dy="3" input="SourceAlpha"/>
      <feGaussianBlur stdDeviation="3" result="blur"/>
      <feFlood flood-opacity="0.161"/>
      <feComposite operator="in" in2="blur"/>
      <feComposite in="SourceGraphic"/>
    </filter>
  </defs>
  <g id="Group_139" data-name="Group 139" transform="translate(-299 -777)">
<!--    <g id="btn-bg" transform="translate(299 777)" fill="#fff" stroke="#eceff1" stroke-width="1">-->
<!--      <circle cx="32" cy="32" r="32" stroke="none"/>-->
<!--      <circle cx="32" cy="32" r="31.5" fill="none"/>-->
<!--    </g>-->
    <g id="Group_129" data-name="Group 129" transform="translate(4.735 -11.759)">
      <g transform="matrix(1, 0, 0, 1, 294.26, 788.76)" filter="url(#Icon_awesome-history)">
        <path id="Icon_awesome-history-2" data-name="Icon awesome-history" d="M29.259,14.5A14.193,14.193,0,0,1,14.921,28.5a14.531,14.531,0,0,1-9.015-3.093A1.327,1.327,0,0,1,5.8,23.4l.652-.635A1.419,1.419,0,0,1,8.3,22.654a10.785,10.785,0,0,0,6.614,2.24A10.5,10.5,0,0,0,25.556,14.531,10.5,10.5,0,0,0,14.911,4.167,10.766,10.766,0,0,0,7.617,6.98l2.936,2.859A.9.9,0,0,1,9.9,11.377H1.488a.914.914,0,0,1-.926-.9V2.288a.929.929,0,0,1,1.58-.637L5,4.431A14.507,14.507,0,0,1,14.911.563,14.163,14.163,0,0,1,29.259,14.5ZM18.792,18.942l.568-.711a1.328,1.328,0,0,0-.244-1.9L16.762,14.55V8.673a1.371,1.371,0,0,0-1.389-1.352h-.926a1.371,1.371,0,0,0-1.389,1.352v7.64l3.784,2.865a1.414,1.414,0,0,0,1.949-.237Z" transform="translate(17.09 17.2)" fill="#FFFFFF"/>
      </g>
    </g>
  </g>
</svg>
